# xmcd
#
# Track frame offsets:
#       150
#       16545
#       31494
#       46811
#       60445
#       80418
#       97202
#       111396
#       131773
#       150644
#       165197
#       185703
#
# Disc length: 2707 seconds
#
# Revision: 0
# Processed by: cddbd v1.5.2PL0 Copyright (c) Steve Scherf et al.
# Submitted via: WaveLab 4.01
#
DISCID=910a910c
DTITLE=Mon-Heli - Heno
DYEAR=2009
DGENRE=
TTITLE0=Ar fy meddwl yr wyt ti
TTITLE1=Gafael yn fy llaw
TTITLE2=Breuddwydion
TTITLE3=Dulyn 51
TTITLE4=Gwersi Taid
TTITLE5=Beth bynnag
TTITLE6=Pob tro y cerddi di i lawr y lon
TTITLE7=Fy mreuddwyd i
TTITLE8=Yr anrheg gefais i
TTITLE9=Diwrnod i'r genod
TTITLE10=Eneth dlos
TTITLE11=Heno
EXTD=
EXTT0=
EXTT1=
EXTT2=
EXTT3=
EXTT4=
EXTT5=
EXTT6=
EXTT7=
EXTT8=
EXTT9=
EXTT10=
EXTT11=
PLAYORDER=
